<svg width="145" height="40" viewBox="0 0 145 40" fill="none" xmlns="http://www.w3.org/2000/svg">
<path d="M111.153 33.6469C111.153 34.3311 111.028 34.8834 110.777 35.3037C110.535 35.7143 110.207 36.0319 109.792 36.2568C109.386 36.4816 108.913 36.6331 108.373 36.7113C107.832 36.7895 107.268 36.8286 106.679 36.8286H103.869C103.252 36.8286 102.668 36.7895 102.117 36.7113C101.577 36.6233 101.104 36.4571 100.698 36.2128C100.293 35.9586 99.9695 35.6067 99.7281 35.1571C99.4965 34.7075 99.3806 34.1112 99.3806 33.3683V32.3273C99.3806 31.6333 99.4965 31.0664 99.7281 30.6265C99.9695 30.1769 100.293 29.825 100.698 29.5708C101.104 29.3069 101.577 29.1261 102.117 29.0283C102.668 28.9208 103.252 28.8671 103.869 28.8671H106.679C107.268 28.8671 107.832 28.9062 108.373 28.9844C108.913 29.0626 109.386 29.2189 109.792 29.4535C110.207 29.6784 110.535 29.996 110.777 30.4066C111.028 30.8171 111.153 31.3596 111.153 32.0341H107.924C107.885 31.6626 107.789 31.3792 107.634 31.1837C107.49 30.9882 107.316 30.8464 107.113 30.7585C106.91 30.6607 106.698 30.607 106.476 30.5972C106.264 30.5776 106.075 30.5679 105.911 30.5679H104.622C104.449 30.5679 104.241 30.5776 104 30.5972C103.768 30.6167 103.541 30.6803 103.319 30.7878C103.107 30.8953 102.923 31.0713 102.769 31.3156C102.615 31.5502 102.537 31.8875 102.537 32.3273V33.3683C102.537 33.8082 102.615 34.1454 102.769 34.38C102.923 34.6146 103.107 34.7857 103.319 34.8932C103.541 35.0007 103.768 35.0642 104 35.0838C104.241 35.1033 104.449 35.1131 104.622 35.1131H105.911C106.075 35.1131 106.264 35.1082 106.476 35.0984C106.698 35.0789 106.91 35.0251 107.113 34.9372C107.316 34.8394 107.494 34.6928 107.649 34.4973C107.803 34.292 107.895 34.0086 107.924 33.6469H111.153Z" fill="#09C6DF"/>
<path d="M94.4546 28.8671C95.0241 28.8671 95.5309 28.9648 95.975 29.1603C96.4191 29.346 96.7907 29.6148 97.09 29.9667C97.3989 30.3186 97.6354 30.7389 97.7995 31.2277C97.9636 31.7066 98.0457 32.2393 98.0457 32.8258V36.8286H94.889V32.8258C94.889 32.601 94.86 32.3811 94.8021 32.166C94.7538 31.9412 94.6525 31.7408 94.498 31.5649C94.3532 31.3792 94.1457 31.2325 93.8754 31.125C93.6147 31.0077 93.2769 30.9491 92.8618 30.9491L89.6472 30.9784V36.8286H86.4905V28.8671H94.4546Z" fill="#09C6DF"/>
<path d="M85.2467 28.7058L80.2221 33.2364V36.8286H77.0654V33.2364L72.0408 28.7058H76.269L77.0654 29.4389L78.6437 30.8464L81.033 28.7058H85.2467Z" fill="#09C6DF"/>
<path d="M67.9449 30.7878C68.2055 30.7976 68.5145 30.8416 68.8716 30.9198C69.2288 30.998 69.5667 31.1348 69.8852 31.3303C70.2135 31.5258 70.4886 31.7946 70.7106 32.1367C70.9327 32.4788 71.0437 32.9187 71.0437 33.4563C71.0437 34.1992 70.9133 34.8003 70.6527 35.2597C70.4017 35.7192 70.0687 36.0759 69.6536 36.3301C69.2481 36.5744 68.7848 36.7406 68.2635 36.8286C67.7422 36.9068 67.2161 36.9459 66.6851 36.9459H63.876C63.0265 36.9459 62.3218 36.8432 61.7619 36.638C61.202 36.4327 60.7579 36.1688 60.4297 35.8462C60.1015 35.5237 59.8698 35.162 59.7346 34.7612C59.6091 34.3605 59.5464 33.9646 59.5464 33.5736H62.8044C62.8527 33.7007 62.9203 33.8326 63.0072 33.9695C63.1037 34.0965 63.2244 34.2138 63.3692 34.3214C63.514 34.4289 63.6877 34.5217 63.8904 34.5999C64.1028 34.6684 64.3538 34.7026 64.6434 34.7026H65.9322C66.1349 34.7026 66.3473 34.6879 66.5693 34.6586C66.801 34.6293 67.0133 34.5706 67.2064 34.4826C67.4091 34.3947 67.5732 34.2725 67.6987 34.1161C67.8242 33.9597 67.887 33.7593 67.887 33.515C67.887 33.4661 67.8773 33.3977 67.858 33.3097C67.8387 33.2119 67.7856 33.1191 67.6987 33.0311C67.6215 32.9334 67.5057 32.8503 67.3512 32.7818C67.1968 32.7036 66.9844 32.6645 66.7141 32.6645L64.7013 32.6499H62.6596C62.3893 32.6401 62.0756 32.5961 61.7184 32.5179C61.3612 32.4397 61.0185 32.3029 60.6903 32.1074C60.3718 31.9119 60.1015 31.6431 59.8794 31.301C59.6574 30.9589 59.5464 30.519 59.5464 29.9814C59.5464 29.2287 59.6719 28.6276 59.9229 28.1779C60.1835 27.7185 60.5214 27.3666 60.9365 27.1223C61.3516 26.8681 61.8198 26.702 62.3411 26.6238C62.8624 26.5358 63.3885 26.4918 63.9194 26.4918H66.7141C67.5732 26.4918 68.2779 26.5993 68.8282 26.8144C69.3881 27.0294 69.8322 27.3031 70.1604 27.6354C70.4886 27.958 70.7154 28.3197 70.8409 28.7204C70.9761 29.1114 71.0437 29.4926 71.0437 29.8641H67.7856C67.7374 29.7468 67.665 29.6197 67.5684 29.4829C67.4815 29.346 67.3657 29.2238 67.2209 29.1163C67.0761 29.0088 66.9023 28.9208 66.6996 28.8524C66.4969 28.7742 66.2507 28.7351 65.9611 28.7351H64.6724C64.4697 28.7351 64.2525 28.7498 64.0208 28.7791C63.7891 28.8084 63.5767 28.8671 63.3836 28.955C63.1906 29.043 63.0313 29.1652 62.9058 29.3216C62.7803 29.4682 62.7176 29.6686 62.7176 29.9227C62.7176 29.9716 62.7272 30.0449 62.7465 30.1427C62.7755 30.2404 62.8286 30.3382 62.9058 30.4359C62.983 30.5239 63.0989 30.607 63.2533 30.6852C63.4078 30.7536 63.6202 30.7878 63.8904 30.7878H67.9449Z" fill="#09C6DF"/>
<path d="M144.292 6.57386V22.292H132.061C131.201 22.292 130.422 22.1344 129.725 21.8191C129.043 21.4889 128.465 21.046 127.991 20.4905C127.531 19.92 127.175 19.267 126.923 18.5314C126.671 17.7807 126.545 16.9926 126.545 16.1669C126.545 15.2661 126.671 14.4404 126.923 13.6898C127.175 12.9392 127.531 12.2937 127.991 11.7532C128.465 11.2127 129.043 10.7999 129.725 10.5147C130.422 10.2144 131.201 10.0643 132.061 10.0643H139.444V6.57386H144.292ZM139.444 13.307L134.507 13.262C133.662 13.262 133.017 13.4121 132.572 13.7123C132.127 14.0126 131.816 14.3804 131.638 14.8158C131.475 15.2511 131.393 15.7015 131.393 16.1669C131.393 16.4371 131.438 16.7374 131.527 17.0677C131.616 17.3979 131.771 17.7132 131.994 18.0134C132.231 18.2987 132.55 18.5389 132.95 18.734C133.35 18.9292 133.869 19.0268 134.507 19.0268H139.444V13.307Z" fill="#0E0E0E"/>
<path d="M124.758 10.0643V15.4913C124.758 16.4521 124.573 17.3604 124.202 18.2161C123.846 19.0568 123.357 19.7924 122.734 20.423C122.112 21.0535 121.378 21.5564 120.533 21.9317C119.702 22.292 118.813 22.4722 117.864 22.4722H113.55C112.601 22.4722 111.704 22.292 110.859 21.9317C110.028 21.5564 109.302 21.0535 108.679 20.423C108.056 19.7924 107.56 19.0568 107.189 18.2161C106.833 17.3604 106.655 16.4521 106.655 15.4913V10.0643H111.615V15.4913C111.615 16.3771 111.726 17.0601 111.948 17.5405C112.171 18.0209 112.438 18.3737 112.749 18.5989C113.075 18.8091 113.416 18.9367 113.772 18.9818C114.128 19.0118 114.439 19.0268 114.706 19.0268H116.685C116.952 19.0268 117.264 19.0118 117.619 18.9818C117.99 18.9367 118.331 18.8091 118.642 18.5989C118.969 18.3737 119.243 18.0209 119.465 17.5405C119.688 17.0601 119.799 16.3771 119.799 15.4913V10.0643H124.758Z" fill="#0E0E0E"/>
<path d="M97.9665 9.8391C98.9154 9.8391 99.805 9.98172 100.635 10.267C101.48 10.5522 102.214 10.9425 102.837 11.4379C103.46 11.9334 103.949 12.5188 104.305 13.1944C104.675 13.855 104.861 14.5681 104.861 15.3337V17.0001C104.861 17.7507 104.675 18.4638 104.305 19.1394C103.949 19.7999 103.46 20.3779 102.837 20.8733C102.214 21.3688 101.48 21.7591 100.635 22.0443C99.805 22.3296 98.9154 22.4722 97.9665 22.4722H93.6521C92.7032 22.4722 91.8062 22.3296 90.9611 22.0443C90.1308 21.7591 89.4043 21.3688 88.7816 20.8733C88.1589 20.3779 87.6622 19.7999 87.2916 19.1394C86.9357 18.4638 86.7578 17.7507 86.7578 17.0001V15.3337C86.7578 14.5681 86.9357 13.855 87.2916 13.1944C87.6622 12.5188 88.1589 11.9334 88.7816 11.4379C89.4043 10.9425 90.1308 10.5522 90.9611 10.267C91.8062 9.98172 92.7032 9.8391 93.6521 9.8391H97.9665ZM99.9014 15.3337C99.9014 14.6281 99.7902 14.0877 99.5678 13.7123C99.3454 13.337 99.0711 13.0668 98.7449 12.9017C98.4335 12.7215 98.0925 12.6164 97.7219 12.5864C97.3661 12.5564 97.0547 12.5414 96.7878 12.5414H94.8085C94.5416 12.5414 94.2303 12.5564 93.8745 12.5864C93.5186 12.6164 93.1776 12.7215 92.8514 12.9017C92.5401 13.0668 92.2732 13.337 92.0508 13.7123C91.8284 14.0877 91.7172 14.6281 91.7172 15.3337V17.0001C91.7172 17.6907 91.8284 18.2236 92.0508 18.5989C92.2732 18.9743 92.5401 19.252 92.8514 19.4321C93.1776 19.5973 93.5186 19.6949 93.8745 19.7249C94.2303 19.7549 94.5416 19.7699 94.8085 19.7699H96.7878C97.0547 19.7699 97.3661 19.7549 97.7219 19.7249C98.0925 19.6949 98.4335 19.5973 98.7449 19.4321C99.0711 19.252 99.3454 18.9743 99.5678 18.5989C99.7902 18.2236 99.9014 17.6907 99.9014 17.0001V15.3337Z" fill="#0E0E0E"/>
<path d="M79.7336 22.292V6.57386H84.5819V22.292H79.7336Z" fill="#0E0E0E"/>
<path d="M77.6271 16.0543C77.553 16.9551 77.3157 17.8033 76.9154 18.5989C76.53 19.3796 76.0259 20.0552 75.4032 20.6256C74.7953 21.1961 74.091 21.6465 73.2904 21.9768C72.4898 22.307 71.6447 22.4722 70.7551 22.4722H66.4406C65.4917 22.4722 64.5948 22.292 63.7497 21.9317C62.9194 21.5564 62.1929 21.0535 61.5702 20.423C60.9475 19.7924 60.4508 19.0568 60.0801 18.2161C59.7243 17.3604 59.5464 16.4521 59.5464 15.4913V13.3746C59.5464 12.4138 59.7243 11.513 60.0801 10.6723C60.4508 9.81658 60.9475 9.07345 61.5702 8.44292C62.1929 7.8124 62.9194 7.31698 63.7497 6.95668C64.5948 6.58136 65.4917 6.39371 66.4406 6.39371H70.7551C71.6447 6.39371 72.4898 6.55885 73.2904 6.88912C74.091 7.2194 74.7953 7.66978 75.4032 8.24026C76.0259 8.81073 76.53 9.4863 76.9154 10.267C77.3157 11.0476 77.553 11.8883 77.6271 12.7891H72.6677C72.6084 12.0535 72.4601 11.4905 72.2229 11.1002C72.0005 10.6948 71.7336 10.4021 71.4223 10.2219C71.1109 10.0268 70.7847 9.91416 70.4437 9.88413C70.1176 9.85411 69.8284 9.83909 69.5764 9.83909H67.5971C67.3302 9.83909 67.0189 9.86161 66.663 9.90665C66.3072 9.93668 65.9662 10.0643 65.64 10.2895C65.3287 10.4996 65.0618 10.8449 64.8394 11.3253C64.617 11.8057 64.5058 12.4888 64.5058 13.3746V15.4913C64.5058 16.3771 64.617 17.0601 64.8394 17.5405C65.0618 18.021 65.3287 18.3737 65.64 18.5989C65.9662 18.8091 66.3072 18.9367 66.663 18.9818C67.0189 19.0118 67.3302 19.0268 67.5971 19.0268H69.5764C69.8284 19.0268 70.1176 19.0118 70.4437 18.9818C70.7847 18.9517 71.1109 18.8466 71.4223 18.6665C71.7336 18.4713 72.0079 18.1711 72.2451 17.7657C72.4824 17.3604 72.6232 16.7899 72.6677 16.0543H77.6271Z" fill="#0E0E0E"/>
<g clip-path="url(#clip0_1_365)">
<path opacity="0.5" d="M14.9289 11.4102C14.923 10.154 15.0064 8.89778 15.1667 7.65247C14.6201 8.71647 14.1996 9.84795 13.9244 11.0149C13.6517 12.2186 13.5263 13.455 13.5584 14.6847C13.5604 14.7719 13.4947 14.8442 13.4106 14.8462H13.4047H13.4021C11.0088 14.8094 8.66868 15.5544 6.79174 16.9701C5.86083 17.6838 5.04817 18.5446 4.39121 19.5091C3.72439 20.4668 3.23627 21.5431 2.92421 22.6555L2.80202 23.0706L2.72055 23.4966C2.67325 23.7815 2.59245 24.0575 2.57996 24.3479C2.55566 24.6349 2.52281 24.9198 2.50244 25.2047L2.50638 26.0635C2.55631 27.2052 2.77245 28.3224 3.13575 29.3762C3.91294 31.4626 5.28336 33.2811 7.05124 34.4678C7.93223 35.0595 8.88548 35.5195 9.88341 35.8174L10.6422 35.996C10.8938 36.0573 11.1546 36.0723 11.4095 36.1153C11.5383 36.1303 11.6644 36.1596 11.7945 36.1637L12.1828 36.1759C12.4488 36.1821 12.6775 36.2039 12.9974 36.1923C15.3993 36.1623 17.8018 36.1521 20.2036 36.1698C22.9267 36.1862 25.6498 36.2386 28.3723 36.3163C27.6588 35.8713 26.9651 35.3962 26.2976 34.887C23.8944 33.0596 21.8165 30.8273 20.1222 28.3483C18.4219 25.8706 17.1238 23.1292 16.2428 20.2671C15.3723 17.4023 14.9216 14.4113 14.9282 11.4184C14.9282 11.417 14.9282 11.4157 14.9282 11.4143C14.9282 11.4129 14.9282 11.4122 14.9282 11.4109L14.9289 11.4102Z" fill="url(#paint0_radial_1_365)"/>
<path d="M48.0153 19.2467C50.2208 20.2112 51.9617 21.8334 53.1226 23.7978C52.3657 20.3325 50.0644 17.2809 46.6614 15.7923C41.0529 13.3385 34.5844 16.0554 32.2141 21.86C30.7754 25.3826 31.1794 29.231 32.9696 32.2621C32.4795 30.0162 32.6359 27.5972 33.5681 25.3144C35.9384 19.5098 42.4069 16.7929 48.0153 19.2467Z" fill="url(#paint1_linear_1_365)"/>
<path d="M53.555 26.2544C53.4112 28.0471 52.8981 29.7736 52.048 31.2738C51.1992 32.774 50.0304 34.0425 48.6791 34.9886C47.3172 35.9217 45.772 36.5195 44.1933 36.7322C43.7992 36.7908 43.4017 36.8133 43.0055 36.8221C42.8078 36.8283 42.6094 36.8174 42.4117 36.8174L41.7672 36.7935L39.1748 36.694C37.7216 36.6422 36.2684 36.5972 34.8152 36.5543C32.1644 35.9551 29.5766 34.9293 27.1977 33.4734C24.7873 31.9977 22.58 30.1035 20.7398 27.8501C18.9036 25.5973 17.4195 23.0011 16.4347 20.1983C15.4348 17.4003 14.9382 14.4066 14.9277 11.4137C14.9277 11.415 14.9277 11.4164 14.9277 11.4177C14.9211 14.4107 15.3718 17.4016 16.2422 20.2664C17.1232 23.1285 18.4214 25.87 20.1216 28.3477C21.8159 30.8267 23.8939 33.059 26.297 34.8864C26.9645 35.3955 27.6583 35.8699 28.3717 36.3157C25.6486 36.238 22.9255 36.1855 20.2031 36.1692C18.1599 36.1535 16.1168 36.1623 14.0736 36.1828L13.2498 36.1753H12.9259C12.8188 36.1739 12.7045 36.1746 12.6178 36.1705C12.4325 36.1623 12.246 36.1664 12.0613 36.1453C11.8761 36.131 11.6915 36.1167 11.5082 36.0881C11.3236 36.0669 11.1416 36.0349 10.9596 35.9981C10.2317 35.8583 9.52088 35.6293 8.84618 35.3137C8.17345 34.9975 7.52568 34.6158 6.93508 34.1509C6.34447 33.6874 5.80379 33.1544 5.32618 32.5662C4.38409 31.3801 3.68509 29.9815 3.34412 28.4812C2.99593 26.9858 2.99068 25.3908 3.31456 23.881C3.47486 23.1238 3.73042 22.3883 4.06153 21.6903C4.39066 20.991 4.79141 20.323 5.27231 19.7177C6.2249 18.4997 7.45736 17.5114 8.84223 16.842C9.53664 16.5101 10.2711 16.2681 11.0247 16.1052C11.4011 16.0207 11.7841 15.9689 12.1697 15.9273L12.7538 15.8898L13.4022 15.8687L14.5782 15.8298L14.5433 14.684C14.5046 13.3985 14.6327 12.1021 14.9362 10.8431C14.9329 11.032 14.9283 11.2208 14.929 11.4102C14.929 11.4116 14.929 11.4123 14.929 11.4137C14.9296 11.2146 14.9369 11.0156 14.9421 10.8172C15.0545 10.3558 15.1885 9.89979 15.3488 9.45129C15.9394 7.76771 16.8591 6.1925 18.0358 4.83064C19.2176 3.47218 20.6702 2.35025 22.2856 1.52277C23.9064 0.704151 25.6972 0.200439 27.5472 0.0450312C25.6979 -0.109013 23.7907 0.138412 21.9933 0.787989C20.1893 1.42325 18.5068 2.47226 17.0674 3.82253C15.6227 5.1694 14.4395 6.84003 13.6111 8.70084C12.9482 10.199 12.5179 11.8206 12.3452 13.4769C12.2446 13.4769 12.1435 13.4769 12.0436 13.4783C11.5667 13.496 11.0884 13.5307 10.6141 13.6037C9.66475 13.7455 8.72858 14.0051 7.83183 14.3746C6.93705 14.7481 6.08037 15.2273 5.2861 15.8032C4.49381 16.3819 3.77115 17.0642 3.1247 17.8188C1.8318 19.3272 0.88446 21.1703 0.400936 23.1449C0.157861 24.1312 0.0244974 25.1482 0.00413164 26.1665C-0.0149202 27.1848 0.0915075 28.2072 0.303049 29.2065C0.722191 31.2077 1.61566 33.0999 2.87177 34.6805C4.13182 36.2557 5.73612 37.5419 7.55131 38.3619C8.45528 38.7777 9.40854 39.0783 10.3808 39.2589C10.6239 39.3059 10.8676 39.3468 11.1127 39.3741C11.3571 39.4102 11.6034 39.4286 11.8491 39.4464C12.0949 39.4702 12.3412 39.4668 12.5876 39.475L12.9279 39.477H13.2518L14.0769 39.4688C16.1201 39.4893 18.1625 39.4975 20.2057 39.4825C25.0101 39.4539 29.8144 39.323 34.6188 39.111L34.7278 39.1062C34.7508 39.1055 34.7732 39.0994 34.7962 39.0974C36.2566 39.0537 37.717 39.0088 39.1774 38.9563L41.7698 38.8568L42.4215 38.8309C42.656 38.8138 42.8899 38.809 43.1231 38.7804C43.5889 38.7286 44.0527 38.6598 44.508 38.5514C46.3377 38.1506 48.0398 37.2645 49.4543 36.0628C52.314 33.6711 53.8553 29.8465 53.5577 26.2551L53.555 26.2544Z" fill="url(#paint2_linear_1_365)"/>
</g>
<defs>
<radialGradient id="paint0_radial_1_365" cx="0" cy="0" r="1" gradientUnits="userSpaceOnUse" gradientTransform="translate(28.0655 15.7248) scale(32.8579 34.0909)">
<stop offset="0.31" stop-color="#333296"/>
<stop offset="0.34" stop-color="#2C439E"/>
<stop offset="0.44" stop-color="#1F6AB1"/>
<stop offset="0.53" stop-color="#138AC1"/>
<stop offset="0.63" stop-color="#0BA4CE"/>
<stop offset="0.74" stop-color="#04B5D7"/>
<stop offset="0.85" stop-color="#01C0DC"/>
<stop offset="0.98" stop-color="#00C4DE"/>
</radialGradient>
<linearGradient id="paint1_linear_1_365" x1="31.3417" y1="23.575" x2="53.1219" y2="23.575" gradientUnits="userSpaceOnUse">
<stop stop-color="#C5F9F7"/>
<stop offset="0.39" stop-color="#00C4DE"/>
<stop offset="1" stop-color="#333296"/>
</linearGradient>
<linearGradient id="paint2_linear_1_365" x1="0.000189871" y1="19.7443" x2="53.5918" y2="19.7443" gradientUnits="userSpaceOnUse">
<stop stop-color="#C5F9F7"/>
<stop offset="0.39" stop-color="#00C4DE"/>
<stop offset="1" stop-color="#333296"/>
</linearGradient>
<clipPath id="clip0_1_365">
<rect width="53.5916" height="39.4886" fill="white"/>
</clipPath>
</defs>
</svg>
